<svg width="1595" height="428" viewBox="0 0 1595 428" fill="none" xmlns="http://www.w3.org/2000/svg">
<path fill-rule="evenodd" clip-rule="evenodd" d="M302.64 58.9031H271.644L172.365 278.04H204.646L209.992 265.92L239.769 198.179H239.701L252.83 168.469L287.006 90.7791L319.016 163.529L334.243 198.179L345.208 223.29L354.884 245.28L369.366 278.04H402.189L302.64 58.9031Z" fill="#FFFFFE"/>
<path fill-rule="evenodd" clip-rule="evenodd" d="M676.206 58.9031V222.34L544.714 58.9031H518.997V278.04H550.33V114.6L681.823 278.04H707.472V58.9031H676.206Z" fill="#FFFFFE"/>
<path fill-rule="evenodd" clip-rule="evenodd" d="M1010.59 58.9031V182.207C1010.59 206.029 1005.24 223.76 994.62 235.33C983.99 246.9 968.63 252.66 948.6 252.66C907.45 252.66 886.88 229.17 886.88 182.207V58.9031H855.61V183.493C855.61 214.83 863.73 238.78 880.04 255.5C896.28 272.22 919.02 280.54 948.26 280.54C977.5 280.54 1000.23 272.28 1016.54 255.64C1032.85 239.06 1040.97 215.03 1040.97 183.493V58.9031H1010.59Z" fill="#FFFFFE"/>
<path fill-rule="evenodd" clip-rule="evenodd" d="M1422.32 58.9031H1396.67L1306.46 212.93L1215.03 58.9031H1189.39V278.04H1219.43V119.337L1298.68 251.44H1313.03L1392.28 118.39L1392.61 278.04H1422.66L1422.32 58.9031Z" fill="#FFFFFE"/>
<path fill-rule="evenodd" clip-rule="evenodd" d="M61.1559 164.314C57.9109 169.554 52.6769 173.295 45.4409 175.542C52.6769 177.782 57.9109 181.529 61.1559 186.764C64.3949 192.004 66.0209 199.737 66.0209 209.961V291.9C66.0209 311.36 75.2469 321.09 93.7119 321.09H103.063V350.64H86.6009C67.8909 350.64 53.7939 345.97 44.3169 336.61C34.8389 327.26 30.1009 313.48 30.1009 295.27V209.214C30.1009 196.743 24.4899 190.504 13.2679 190.504H0.169922V160.573H13.2679C24.4899 160.573 30.1009 154.34 30.1009 141.863V55.8091C30.1009 37.6081 34.8389 23.8211 44.3169 14.4631C53.7939 5.1121 67.8909 0.433105 86.6009 0.433105H103.063V29.9941H93.7119C75.2469 29.9941 66.0209 39.7221 66.0209 59.1791V141.116C66.0209 151.347 64.3949 159.079 61.1559 164.314Z" fill="#E2A631"/>
<path fill-rule="evenodd" clip-rule="evenodd" d="M1594.86 160.573V190.504H1582.14C1571.16 190.504 1565.68 196.743 1565.68 209.214V295.27C1565.68 313.48 1560.87 327.26 1551.27 336.61C1541.67 345.97 1527.51 350.64 1508.81 350.64H1492.35V321.09H1501.32C1520.27 321.09 1529.76 311.36 1529.76 291.9V209.961C1529.76 199.486 1531.31 191.694 1534.44 186.579C1537.55 181.47 1542.72 177.782 1549.96 175.542C1542.72 173.295 1537.55 169.62 1534.44 164.505C1531.31 159.39 1529.76 151.591 1529.76 141.116V59.1791C1529.76 39.7221 1520.27 29.9941 1501.32 29.9941H1492.35V0.433105H1508.81C1527.51 0.433105 1541.67 5.1121 1551.27 14.4631C1560.87 23.8211 1565.68 37.6081 1565.68 55.8091V141.863C1565.68 154.34 1571.16 160.573 1582.14 160.573H1594.86Z" fill="#E2A631"/>
<path fill-rule="evenodd" clip-rule="evenodd" d="M584.964 424.15C580.357 421.64 576.742 418.18 574.131 413.76C571.521 409.34 570.212 404.36 570.212 398.81C570.212 393.27 571.534 388.28 574.171 383.86C576.815 379.45 580.436 375.98 585.043 373.48C589.649 370.97 594.804 369.72 600.521 369.72C605.153 369.72 609.377 370.52 613.203 372.14C617.029 373.76 620.261 376.1 622.905 379.18L616.118 385.56C612.02 381.14 606.984 378.93 601.003 378.93C597.124 378.93 593.648 379.78 590.581 381.48C587.508 383.17 585.109 385.53 583.384 388.55C581.659 391.57 580.8 394.98 580.8 398.81C580.8 402.64 581.659 406.06 583.384 409.07C585.109 412.09 587.508 414.45 590.581 416.15C593.648 417.84 597.124 418.69 601.003 418.69C606.984 418.69 612.02 416.46 616.118 411.98L622.905 418.45C620.261 421.52 617.016 423.86 613.163 425.48C609.311 427.1 605.068 427.9 600.435 427.9C594.725 427.9 589.569 426.65 584.964 424.15Z" fill="#E2A631"/>
<path fill-rule="evenodd" clip-rule="evenodd" d="M708.807 416.15C711.821 414.45 714.193 412.08 715.919 409.03C717.644 405.99 718.503 402.58 718.503 398.81C718.503 395.04 717.644 391.63 715.919 388.59C714.193 385.55 711.821 383.17 708.807 381.48C705.787 379.78 702.397 378.93 698.623 378.93C694.849 378.93 691.459 379.78 688.439 381.48C685.425 383.17 683.052 385.55 681.328 388.59C679.603 391.63 678.743 395.04 678.743 398.81C678.743 402.58 679.603 405.99 681.328 409.03C683.052 412.08 685.425 414.45 688.439 416.15C691.459 417.84 694.849 418.69 698.623 418.69C702.397 418.69 705.787 417.84 708.807 416.15ZM683.026 424.15C678.393 421.64 674.758 418.17 672.115 413.72C669.478 409.28 668.156 404.31 668.156 398.81C668.156 393.32 669.478 388.35 672.115 383.9C674.758 379.46 678.393 375.98 683.026 373.48C687.659 370.97 692.86 369.72 698.623 369.72C704.386 369.72 709.587 370.97 714.22 373.48C718.853 375.98 722.488 379.45 725.131 383.86C727.768 388.28 729.09 393.27 729.09 398.81C729.09 404.36 727.768 409.34 725.131 413.76C722.488 418.18 718.853 421.64 714.22 424.15C709.587 426.65 704.386 427.9 698.623 427.9C692.86 427.9 687.659 426.65 683.026 424.15Z" fill="#E2A631"/>
<path fill-rule="evenodd" clip-rule="evenodd" d="M804.89 418.21C809.04 418.21 812.69 417.41 815.85 415.82C819 414.24 821.42 411.97 823.11 409.03C824.81 406.1 825.66 402.69 825.66 398.81C825.66 394.93 824.81 391.53 823.11 388.59C821.42 385.65 819 383.39 815.85 381.8C812.69 380.21 809.04 379.41 804.89 379.41H791.15V418.21H804.89ZM780.646 370.52H805.38C811.41 370.52 816.77 371.7 821.46 374.04C826.15 376.39 829.78 379.7 832.37 383.98C834.96 388.26 836.25 393.21 836.25 398.81C836.25 404.41 834.96 409.36 832.37 413.64C829.78 417.92 826.15 421.23 821.46 423.58C816.77 425.93 811.41 427.1 805.38 427.1H780.646V370.52Z" fill="#E2A631"/>
<path fill-rule="evenodd" clip-rule="evenodd" d="M930.24 418.29V427.1H887.81V370.52H929.11V379.33H898.32V394.05H925.63V402.69H898.32V418.29H930.24Z" fill="#E2A631"/>
<path fill-rule="evenodd" clip-rule="evenodd" d="M987.25 426.05C983.18 424.81 979.96 423.16 977.59 421.11L981.23 412.95C983.55 414.78 986.39 416.28 989.75 417.44C993.12 418.6 996.5 419.18 999.9 419.18C1004.1 419.18 1007.24 418.5 1009.31 417.16C1011.38 415.81 1012.42 414.03 1012.42 411.82C1012.42 410.2 1011.85 408.88 1010.68 407.82C1009.53 406.77 1008.06 405.95 1006.28 405.36C1004.5 404.77 1002.08 404.09 999 403.34C994.69 402.31 991.21 401.29 988.54 400.26C985.87 399.25 983.59 397.64 981.68 395.46C979.76 393.28 978.8 390.32 978.8 386.61C978.8 383.48 979.65 380.64 981.35 378.08C983.04 375.53 985.6 373.49 989.03 371.98C992.45 370.47 996.64 369.72 1001.59 369.72C1005.04 369.72 1008.44 370.15 1011.77 371.01C1015.12 371.87 1018 373.11 1020.42 374.73L1017.11 382.89C1014.63 381.44 1012.04 380.33 1009.35 379.58C1006.66 378.82 1004.05 378.45 1001.51 378.45C997.36 378.45 994.28 379.15 992.26 380.55C990.24 381.95 989.23 383.81 989.23 386.12C989.23 387.74 989.8 389.06 990.97 390.09C992.12 391.1 993.59 391.92 995.37 392.51C997.15 393.1 999.57 393.77 1002.65 394.53C1006.85 395.5 1010.29 396.51 1012.99 397.56C1015.68 398.61 1017.98 400.21 1019.9 402.37C1021.81 404.52 1022.76 407.44 1022.76 411.1C1022.76 414.22 1021.92 417.05 1020.22 419.58C1018.53 422.11 1015.95 424.14 1012.51 425.64C1009.06 427.15 1004.85 427.9 999.9 427.9C995.53 427.9 991.32 427.28 987.25 426.05Z" fill="#E2A631"/>
</svg>
